<svg width="24" height="24" viewBox="0 0 24 24" fill="none" xmlns="http://www.w3.org/2000/svg">
<path d="M12.0001 5.00005C12.0033 3.91124 11.4163 2.90617 10.4664 2.37399C9.51656 1.8418 8.35289 1.86605 7.426 2.43736C6.49911 3.00866 5.95453 4.03732 6.0031 5.12505C4.81208 5.43129 3.82812 6.26836 3.33494 7.3949C2.84177 8.52144 2.89419 9.81222 3.4771 10.8951C2.45013 11.7294 1.90219 13.0176 2.01347 14.336C2.12474 15.6545 2.88082 16.8327 4.0331 17.4831C3.84211 18.9607 4.48825 20.4221 5.7098 21.2752C6.93134 22.1283 8.52581 22.2318 9.84737 21.5437C11.1689 20.8556 11.9985 19.49 12.0001 18.0001V5.00005" stroke="#0B1220" stroke-width="2" stroke-linecap="round" stroke-linejoin="round"/>
<path d="M9.00005 13C10.7169 12.396 11.901 10.8173 12.0001 9M6.00305 5.125C6.02283 5.60873 6.15938 6.0805 6.40105 6.5M3.47705 10.896C3.65999 10.747 3.85575 10.6145 4.06205 10.5M6.00005 18C5.31088 18.0003 4.63332 17.8226 4.03305 17.484M12.0001 13H16.0001M12.0001 18H18.0001C19.1039 18 20.0001 18.8962 20.0001 20V21M12.0001 8H20.0001M16.0001 8V5C16.0001 3.89617 16.8962 3 18.0001 3" stroke="#0B1220" stroke-width="2" stroke-linecap="round" stroke-linejoin="round"/>
<path d="M15.5 13C15.5 13.276 15.724 13.5 16 13.5C16.276 13.5 16.5 13.276 16.5 13C16.5 12.724 16.276 12.5 16 12.5C15.724 12.5 15.5 12.724 15.5 13V13" stroke="#0B1220" stroke-width="2" stroke-linecap="round" stroke-linejoin="round"/>
<path d="M17.5 3C17.5 3.27596 17.724 3.5 18 3.5C18.276 3.5 18.5 3.27596 18.5 3C18.5 2.72404 18.276 2.5 18 2.5C17.724 2.5 17.5 2.72404 17.5 3V3" stroke="#0B1220" stroke-width="2" stroke-linecap="round" stroke-linejoin="round"/>
<path d="M19.5 21C19.5 21.276 19.724 21.5 20 21.5C20.276 21.5 20.5 21.276 20.5 21C20.5 20.724 20.276 20.5 20 20.5C19.724 20.5 19.5 20.724 19.5 21V21" stroke="#0B1220" stroke-width="2" stroke-linecap="round" stroke-linejoin="round"/>
<path d="M19.5 8C19.5 8.27596 19.724 8.5 20 8.5C20.276 8.5 20.5 8.27596 20.5 8C20.5 7.72404 20.276 7.5 20 7.5C19.724 7.5 19.5 7.72404 19.5 8V8" stroke="#0B1220" stroke-width="2" stroke-linecap="round" stroke-linejoin="round"/>
</svg>
