<svg width="302" height="72" viewBox="0 0 302 72" fill="none" xmlns="http://www.w3.org/2000/svg">
<path d="M65.3864 35.8639C65.3864 43.4775 63.9432 49.9548 61.0568 55.2957C58.1932 60.6366 54.2841 64.7161 49.3295 67.5343C44.3977 70.3298 38.8523 71.7275 32.6932 71.7275C26.4886 71.7275 20.9205 70.3184 15.9886 67.5002C11.0568 64.682 7.15909 60.6025 4.29545 55.2616C1.43182 49.9207 -2.74181e-06 43.4548 -2.74181e-06 35.8639C-2.74181e-06 28.2502 1.43182 21.7729 4.29545 16.432C7.15909 11.0911 11.0568 7.02295 15.9886 4.2275C20.9205 1.40931 26.4886 0.000219345 32.6932 0.000219345C38.8523 0.000219345 44.3977 1.40931 49.3295 4.2275C54.2841 7.02295 58.1932 11.0911 61.0568 16.432C63.9432 21.7729 65.3864 28.2502 65.3864 35.8639ZM50.4205 35.8639C50.4205 30.932 49.6818 26.7729 48.2045 23.3866C46.75 20.0002 44.6932 17.432 42.0341 15.682C39.375 13.932 36.2614 13.057 32.6932 13.057C29.125 13.057 26.0114 13.932 23.3523 15.682C20.6932 17.432 18.625 20.0002 17.1477 23.3866C15.6932 26.7729 14.9659 30.932 14.9659 35.8639C14.9659 40.7957 15.6932 44.9548 17.1477 48.3411C18.625 51.7275 20.6932 54.2957 23.3523 56.0457C26.0114 57.7957 29.125 58.6707 32.6932 58.6707C36.2614 58.6707 39.375 57.7957 42.0341 56.0457C44.6932 54.2957 46.75 51.7275 48.2045 48.3411C49.6818 44.9548 50.4205 40.7957 50.4205 35.8639ZM134.719 0.954765V70.7729H121.969L91.5937 26.8298H91.0824V70.7729H76.321V0.954765H89.2756L119.412 44.8639H120.026V0.954765H134.719ZM142.824 0.954765H159.358L175.278 31.0229H175.96L191.881 0.954765H208.415L182.949 46.0911V70.7729H168.29V46.0911L142.824 0.954765ZM230.318 0.954765L244.398 24.7502H244.943L259.091 0.954765H275.761L254.455 35.8639L276.239 70.7729H259.261L244.943 46.9434H244.398L230.08 70.7729H213.17L235.023 35.8639L213.58 0.954765H230.318ZM293.318 71.6593C291.068 71.6593 289.136 70.8639 287.523 69.2729C285.932 67.6593 285.136 65.7275 285.136 63.4775C285.136 61.2502 285.932 59.3411 287.523 57.7502C289.136 56.1593 291.068 55.3639 293.318 55.3639C295.5 55.3639 297.409 56.1593 299.045 57.7502C300.682 59.3411 301.5 61.2502 301.5 63.4775C301.5 64.9775 301.114 66.3525 300.341 67.6025C299.591 68.8298 298.602 69.8184 297.375 70.5684C296.148 71.2957 294.795 71.6593 293.318 71.6593Z" fill="#0B1220"/>
</svg>
